<?xml version="1.0" encoding="UTF-8" standalone="no"?>
<svg
   xmlns:dc="http://purl.org/dc/elements/1.1/"
   xmlns:cc="http://creativecommons.org/ns#"
   xmlns:rdf="http://www.w3.org/1999/02/22-rdf-syntax-ns#"
   xmlns:svg="http://www.w3.org/2000/svg"
   xmlns="http://www.w3.org/2000/svg"
   xmlns:sodipodi="http://sodipodi.sourceforge.net/DTD/sodipodi-0.dtd"
   xmlns:inkscape="http://www.inkscape.org/namespaces/inkscape"
   version="1.1"
   viewBox="0 0 966.91962 272.11768"
   fill="none"
   stroke="none"
   stroke-linecap="square"
   stroke-miterlimit="10"
   id="svg93"
   sodipodi:docname="buycycle_arch.svg"
   width="966.91962"
   height="272.11768"
   inkscape:version="1.0.1 (3bc2e813f5, 2020-09-07)">
  <metadata
     id="metadata99">
    <rdf:RDF>
      <cc:Work
         rdf:about="">
        <dc:format>image/svg+xml</dc:format>
        <dc:type
           rdf:resource="http://purl.org/dc/dcmitype/StillImage" />
        <dc:title></dc:title>
      </cc:Work>
    </rdf:RDF>
  </metadata>
  <defs
     id="defs97" />
  <sodipodi:namedview
     pagecolor="#ffffff"
     bordercolor="#666666"
     borderopacity="1"
     objecttolerance="10"
     gridtolerance="10"
     guidetolerance="10"
     inkscape:pageopacity="0"
     inkscape:pageshadow="2"
     inkscape:window-width="2436"
     inkscape:window-height="1057"
     id="namedview95"
     showgrid="false"
     inkscape:zoom="1.2751835"
     inkscape:cx="490.97881"
     inkscape:cy="141.39105"
     inkscape:window-x="1912"
     inkscape:window-y="-8"
     inkscape:window-maximized="1"
     inkscape:current-layer="svg93" />
  <clipPath
     id="p.0">
    <path
       d="M 0,0 H 960 V 540 H 0 Z"
       clip-rule="nonzero"
       id="path2" />
  </clipPath>
  <g
     clip-path="url(#p.0)"
     id="g91"
     transform="translate(10.978811,-128.60895)">
    <path
       fill="#ffffff"
       d="M 0,0 H 960 V 540 H 0 Z"
       fill-rule="evenodd"
       id="path5" />
    <path
       fill="#eeeeee"
       d="m 281.17633,311.03458 h 322.70868 v 58.58267 H 281.17633 Z"
       fill-rule="evenodd"
       id="path7" />
    <path
       stroke="#0000ff"
       stroke-width="1"
       stroke-linejoin="round"
       stroke-linecap="butt"
       d="m 281.17633,311.03458 h 322.70868 v 58.58267 H 281.17633 Z"
       fill-rule="evenodd"
       id="path9" />
    <path
       fill="#000000"
       d="m 394.6295,342.94904 1.65625,-0.14062 q 0.125,1 0.54687,1.64062 0.4375,0.64063 1.34375,1.04688 0.92188,0.39062 2.0625,0.39062 1,0 1.78125,-0.29687 0.78125,-0.29688 1.15625,-0.8125 0.375,-0.53125 0.375,-1.15625 0,-0.625 -0.375,-1.09375 -0.35937,-0.46875 -1.1875,-0.79688 -0.54687,-0.20312 -2.39062,-0.64062 -1.82813,-0.45313 -2.5625,-0.84375 -0.96875,-0.5 -1.4375,-1.23438 -0.46875,-0.75 -0.46875,-1.67187 0,-1 0.57812,-1.875 0.57813,-0.89063 1.67188,-1.34375 1.10937,-0.45313 2.45312,-0.45313 1.48438,0 2.60938,0.48438 1.14062,0.46875 1.75,1.40625 0.60937,0.92187 0.65625,2.09375 l -1.6875,0.125 q -0.14063,-1.26563 -0.9375,-1.90625 -0.78125,-0.65625 -2.3125,-0.65625 -1.60938,0 -2.34375,0.59375 -0.73438,0.59375 -0.73438,1.42187 0,0.71875 0.53125,1.17188 0.5,0.46875 2.65625,0.96875 2.15625,0.48437 2.95313,0.84375 1.17187,0.53125 1.71875,1.35937 0.5625,0.82813 0.5625,1.90625 0,1.0625 -0.60938,2.01563 -0.60937,0.9375 -1.75,1.46875 -1.14062,0.51562 -2.57812,0.51562 -1.8125,0 -3.04688,-0.53125 -1.21875,-0.53125 -1.92187,-1.59375 -0.6875,-1.0625 -0.71875,-2.40625 z m 12.8342,8 v -13.375 h 1.48437 v 1.25 q 0.53125,-0.73437 1.1875,-1.09375 0.67188,-0.375 1.625,-0.375 1.23438,0 2.17188,0.64063 0.95312,0.625 1.4375,1.79687 0.48437,1.15625 0.48437,2.54688 0,1.48437 -0.53125,2.67187 -0.53125,1.1875 -1.54687,1.82813 -1.01563,0.625 -2.14063,0.625 -0.8125,0 -1.46875,-0.34375 -0.65625,-0.34375 -1.0625,-0.875 v 4.70312 z m 1.48437,-8.48437 q 0,1.85937 0.75,2.76562 0.76563,0.89063 1.82813,0.89063 1.09375,0 1.875,-0.92188 0.78125,-0.9375 0.78125,-2.875 0,-1.84375 -0.76563,-2.76562 -0.75,-0.92188 -1.8125,-0.92188 -1.04687,0 -1.85937,0.98438 -0.79688,0.96875 -0.79688,2.84375 z m 8.87573,4.78125 v -9.67188 h 1.46875 v 1.46875 q 0.5625,-1.03125 1.03125,-1.35937 0.48438,-0.32813 1.0625,-0.32813 0.82813,0 1.6875,0.53125 l -0.5625,1.51563 q -0.60937,-0.35938 -1.20312,-0.35938 -0.54688,0 -0.96875,0.32813 -0.42188,0.32812 -0.60938,0.89062 -0.28125,0.875 -0.28125,1.92188 v 5.0625 z m 6.22831,-11.46875 v -1.89063 h 1.64062 v 1.89063 z m 0,11.46875 v -9.67188 h 1.64062 v 9.67188 z m 4.1448,0 v -9.67188 h 1.46875 v 1.375 q 1.0625,-1.59375 3.07813,-1.59375 0.875,0 1.60937,0.3125 0.73438,0.3125 1.09375,0.82813 0.375,0.5 0.51563,1.20312 0.0937,0.45313 0.0937,1.59375 v 5.95313 h -1.64063 v -5.89063 q 0,-1 -0.20312,-1.48437 -0.1875,-0.5 -0.67188,-0.79688 -0.48437,-0.29687 -1.14062,-0.29687 -1.04688,0 -1.8125,0.67187 -0.75,0.65625 -0.75,2.51563 v 5.28125 z m 10.06323,0.79687 1.59375,0.23438 q 0.10938,0.75 0.5625,1.07812 0.60938,0.45313 1.67188,0.45313 1.14062,0 1.75,-0.45313 0.625,-0.45312 0.84375,-1.26562 0.125,-0.5 0.10937,-2.10938 -1.0625,1.26563 -2.67187,1.26563 -2,0 -3.09375,-1.4375 -1.09375,-1.4375 -1.09375,-3.45313 0,-1.39062 0.5,-2.5625 0.51562,-1.17187 1.45312,-1.79687 0.95313,-0.64063 2.25,-0.64063 1.70313,0 2.8125,1.375 v -1.15625 h 1.51563 v 8.35938 q 0,2.26562 -0.46875,3.20312 -0.45313,0.9375 -1.45313,1.48438 -0.98437,0.54687 -2.45312,0.54687 -1.71875,0 -2.79688,-0.78125 -1.0625,-0.76562 -1.03125,-2.34375 z m 1.35938,-5.8125 q 0,1.90625 0.75,2.78125 0.76562,0.875 1.90625,0.875 1.125,0 1.89062,-0.85937 0.76563,-0.875 0.76563,-2.73438 0,-1.78125 -0.79688,-2.67187 -0.78125,-0.90625 -1.89062,-0.90625 -1.09375,0 -1.85938,0.89062 -0.76562,0.875 -0.76562,2.625 z m 14.63715,5.01563 v -13.35938 h 5.01562 q 1.53125,0 2.45313,0.40625 0.92187,0.40625 1.4375,1.25 0.53125,0.84375 0.53125,1.76563 0,0.85937 -0.46875,1.625 -0.45313,0.75 -1.39063,1.20312 1.20313,0.35938 1.85938,1.21875 0.65625,0.85938 0.65625,2.01563 0,0.9375 -0.40625,1.75 -0.39063,0.79687 -0.98438,1.23437 -0.57812,0.4375 -1.45312,0.67188 -0.875,0.21875 -2.15625,0.21875 z m 1.78125,-7.75 h 2.875 q 1.1875,0 1.6875,-0.14063 0.67187,-0.20312 1.01562,-0.67187 0.34375,-0.46875 0.34375,-1.17188 0,-0.65625 -0.32812,-1.15625 -0.3125,-0.51562 -0.90625,-0.70312 -0.59375,-0.1875 -2.03125,-0.1875 h -2.65625 z m 0,6.17187 h 3.3125 q 0.85937,0 1.20312,-0.0625 0.60938,-0.10937 1.01563,-0.35937 0.42187,-0.26563 0.6875,-0.75 0.26562,-0.48438 0.26562,-1.125 0,-0.75 -0.39062,-1.29688 -0.375,-0.54687 -1.0625,-0.76562 -0.67188,-0.23438 -1.95313,-0.23438 h -3.07812 z m 9.92794,-3.26562 q 0,-2.6875 1.48438,-3.96875 1.25,-1.07813 3.04687,-1.07813 2,0 3.26563,1.3125 1.26562,1.29688 1.26562,3.60938 0,1.85937 -0.5625,2.9375 -0.5625,1.0625 -1.64062,1.65625 -1.0625,0.59375 -2.32813,0.59375 -2.03125,0 -3.28125,-1.29688 -1.25,-1.3125 -1.25,-3.76562 z m 1.6875,0 q 0,1.85937 0.79688,2.79687 0.8125,0.92188 2.04687,0.92188 1.21875,0 2.03125,-0.92188 0.8125,-0.9375 0.8125,-2.84375 0,-1.79687 -0.8125,-2.71875 -0.8125,-0.92187 -2.03125,-0.92187 -1.23437,0 -2.04687,0.92187 -0.79688,0.90625 -0.79688,2.76563 z m 8.68821,0 q 0,-2.6875 1.48437,-3.96875 1.25,-1.07813 3.04688,-1.07813 2,0 3.26562,1.3125 1.26563,1.29688 1.26563,3.60938 0,1.85937 -0.5625,2.9375 -0.5625,1.0625 -1.64063,1.65625 -1.0625,0.59375 -2.32812,0.59375 -2.03125,0 -3.28125,-1.29688 -1.25,-1.3125 -1.25,-3.76562 z m 1.6875,0 q 0,1.85937 0.79687,2.79687 0.8125,0.92188 2.04688,0.92188 1.21875,0 2.03125,-0.92188 0.8125,-0.9375 0.8125,-2.84375 0,-1.79687 -0.8125,-2.71875 -0.8125,-0.92187 -2.03125,-0.92187 -1.23438,0 -2.04688,0.92187 -0.79687,0.90625 -0.79687,2.76563 z m 12.87573,3.375 0.23437,1.45312 q -0.6875,0.14063 -1.23437,0.14063 -0.89063,0 -1.39063,-0.28125 -0.48437,-0.28125 -0.6875,-0.73438 -0.20312,-0.46875 -0.20312,-1.9375 v -5.57812 h -1.20313 v -1.26563 h 1.20313 v -2.39062 l 1.625,-0.98438 v 3.375 h 1.65625 v 1.26563 h -1.65625 v 5.67187 q 0,0.6875 0.0781,0.89063 0.0937,0.20312 0.28125,0.32812 0.20313,0.10938 0.57813,0.10938 0.26562,0 0.71875,-0.0625 z"
       fill-rule="nonzero"
       id="path11" />
    <path
       fill="#eeeeee"
       d="m 388.8588,238.25745 h 214.99216 v 58.58267 H 388.8588 Z"
       fill-rule="evenodd"
       id="path13" />
    <path
       stroke="#0000ff"
       stroke-width="1"
       stroke-linejoin="round"
       stroke-linecap="butt"
       d="m 388.8588,238.25745 h 214.99216 v 58.58267 H 388.8588 Z"
       fill-rule="evenodd"
       id="path15" />
    <path
       fill="#000000"
       d="m 477.77695,269.78128 1.76562,0.45312 q -0.5625,2.17188 -2,3.32813 -1.4375,1.14062 -3.53125,1.14062 -2.15625,0 -3.51562,-0.875 -1.34375,-0.89062 -2.0625,-2.54687 -0.70313,-1.67188 -0.70313,-3.59375 0,-2.07813 0.79688,-3.625 0.79687,-1.5625 2.26562,-2.35938 1.48438,-0.8125 3.25,-0.8125 2,0 3.35938,1.01563 1.375,1.01562 1.90625,2.875 l -1.73438,0.40625 q -0.46875,-1.45313 -1.35937,-2.10938 -0.875,-0.67187 -2.20313,-0.67187 -1.54687,0 -2.57812,0.73437 -1.03125,0.73438 -1.45313,1.98438 -0.42187,1.23437 -0.42187,2.5625 0,1.70312 0.5,2.96875 0.5,1.26562 1.54687,1.90625 1.04688,0.625 2.26563,0.625 1.48437,0 2.51562,-0.85938 1.03125,-0.85937 1.39063,-2.54687 z m 3.12921,-0.15625 q 0,-2.6875 1.48438,-3.96875 1.25,-1.07813 3.04687,-1.07813 2,0 3.26563,1.3125 1.26562,1.29688 1.26562,3.60938 0,1.85937 -0.5625,2.9375 -0.5625,1.0625 -1.64062,1.65625 -1.0625,0.59375 -2.32813,0.59375 -2.03125,0 -3.28125,-1.29688 -1.25,-1.3125 -1.25,-3.76562 z m 1.6875,0 q 0,1.85937 0.79688,2.79687 0.8125,0.92188 2.04687,0.92188 1.21875,0 2.03125,-0.92188 0.8125,-0.9375 0.8125,-2.84375 0,-1.79687 -0.8125,-2.71875 -0.8125,-0.92187 -2.03125,-0.92187 -1.23437,0 -2.04687,0.92187 -0.79688,0.90625 -0.79688,2.76563 z m 9.29758,4.84375 v -9.67188 h 1.46875 v 1.35938 q 0.45312,-0.71875 1.20312,-1.14063 0.76563,-0.4375 1.71875,-0.4375 1.07813,0 1.76563,0.45313 0.6875,0.4375 0.96875,1.23437 1.15625,-1.6875 2.98437,-1.6875 1.45313,0 2.21875,0.79688 0.78125,0.79687 0.78125,2.45312 v 6.64063 h -1.64062 v -6.09375 q 0,-0.98438 -0.15625,-1.40625 -0.15625,-0.4375 -0.57813,-0.70313 -0.42187,-0.26562 -0.98437,-0.26562 -1.01563,0 -1.6875,0.6875 -0.67188,0.67187 -0.67188,2.15625 v 5.625 h -1.64062 v -6.28125 q 0,-1.09375 -0.40625,-1.64063 -0.40625,-0.54687 -1.3125,-0.54687 -0.6875,0 -1.28125,0.35937 -0.59375,0.35938 -0.85938,1.0625 -0.25,0.70313 -0.25,2.03125 v 5.01563 z m 20.33771,0 v -3.20313 h -5.79691 v -1.5 l 6.09378,-8.65625 h 1.34375 v 8.65625 h 1.79688 v 1.5 h -1.79688 v 3.20313 z m 0,-4.70313 v -6.01562 l -4.18753,6.01562 z m 4.87573,0.90625 1.59375,-0.21875 q 0.0781,1.53125 0.57812,2.10938 0.51563,0.5625 1.42188,0.5625 0.65625,0 1.14062,-0.29688 0.48438,-0.3125 0.65625,-0.82812 0.1875,-0.53125 0.1875,-1.6875 v -9.20313 h 1.76563 v 9.10938 q 0,1.67187 -0.40625,2.59375 -0.40625,0.92187 -1.28125,1.40625 -0.875,0.48437 -2.0625,0.48437 -1.75,0 -2.6875,-1.01562 -0.9375,-1.01563 -0.90625,-3.01563 z"
       fill-rule="nonzero"
       id="path17" />
    <path
       fill="#eeeeee"
       d="m 616.4046,165.48032 h 87.49603 V 369.6063 H 616.4046 Z"
       fill-rule="evenodd"
       id="path19" />
    <path
       stroke="#595959"
       stroke-width="1"
       stroke-linejoin="round"
       stroke-linecap="butt"
       d="m 616.4046,165.48032 h 87.49603 V 369.6063 H 616.4046 Z"
       fill-rule="evenodd"
       id="path21" />
    <path
       fill="#000000"
       d="m 644.51105,265.0633 -3.32813,-8.59375 h 1.23438 l 2.23437,6.25 q 0.26563,0.75 0.45313,1.40625 0.20312,-0.70312 0.46875,-1.40625 l 2.3125,-6.25 h 1.15625 l -3.35938,8.59375 z m 9.01367,-2 1.09375,0.125 q -0.25,0.95313 -0.95312,1.48438 -0.70313,0.53125 -1.78125,0.53125 -1.35938,0 -2.17188,-0.84375 -0.79687,-0.84375 -0.79687,-2.35938 0,-1.5625 0.8125,-2.42187 0.8125,-0.875 2.09375,-0.875 1.25,0 2.03125,0.84375 0.79687,0.84375 0.79687,2.39062 0,0.0937 0,0.28125 h -4.64062 q 0.0625,1.03125 0.57812,1.57813 0.51563,0.53125 1.29688,0.53125 0.57812,0 0.98437,-0.29688 0.42188,-0.3125 0.65625,-0.96875 z m -3.45312,-1.70312 h 3.46875 q -0.0625,-0.79688 -0.39063,-1.1875 -0.51562,-0.60938 -1.3125,-0.60938 -0.73437,0 -1.23437,0.48438 -0.48438,0.48437 -0.53125,1.3125 z m 5.87695,3.70312 v -6.21875 h 0.9375 v 0.875 q 0.6875,-1.01562 1.98437,-1.01562 0.5625,0 1.03125,0.20312 0.48438,0.20313 0.71875,0.53125 0.23438,0.32813 0.32813,0.76563 0.0469,0.29687 0.0469,1.03125 v 3.82812 h -1.04687 v -3.78125 q 0,-0.65625 -0.125,-0.96875 -0.125,-0.3125 -0.4375,-0.5 -0.3125,-0.20312 -0.73438,-0.20312 -0.67187,0 -1.17187,0.4375 -0.48438,0.42187 -0.48438,1.60937 v 3.40625 z m 10.70508,0 v -0.78125 q -0.59375,0.92188 -1.73438,0.92188 -0.75,0 -1.375,-0.40625 -0.625,-0.42188 -0.96875,-1.15625 -0.34375,-0.73438 -0.34375,-1.6875 0,-0.92188 0.3125,-1.6875 0.3125,-0.76563 0.9375,-1.15625 0.625,-0.40625 1.39063,-0.40625 0.5625,0 1,0.23437 0.4375,0.23438 0.71875,0.60938 v -3.07813 h 1.04687 v 8.59375 z m -3.32813,-3.10937 q 0,1.20312 0.5,1.79687 0.5,0.57813 1.1875,0.57813 0.6875,0 1.17188,-0.5625 0.48437,-0.5625 0.48437,-1.71875 0,-1.28125 -0.5,-1.875 -0.48437,-0.59375 -1.20312,-0.59375 -0.70313,0 -1.17188,0.57812 -0.46875,0.5625 -0.46875,1.79688 z m 5.58008,0 q 0,-1.73438 0.95313,-2.5625 0.79687,-0.6875 1.95312,-0.6875 1.28125,0 2.09375,0.84375 0.82813,0.82812 0.82813,2.3125 0,1.20312 -0.35938,1.89062 -0.35937,0.6875 -1.0625,1.07813 -0.6875,0.375 -1.5,0.375 -1.29687,0 -2.10937,-0.82813 -0.79688,-0.84375 -0.79688,-2.42187 z m 1.07813,0 q 0,1.1875 0.51562,1.78125 0.53125,0.59375 1.3125,0.59375 0.79688,0 1.3125,-0.59375 0.51563,-0.59375 0.51563,-1.8125 0,-1.15625 -0.53125,-1.75 -0.51563,-0.59375 -1.29688,-0.59375 -0.78125,0 -1.3125,0.59375 -0.51562,0.57812 -0.51562,1.78125 z m 5.9707,3.10937 v -6.21875 h 0.95312 v 0.9375 q 0.35938,-0.65625 0.65625,-0.85937 0.3125,-0.21875 0.6875,-0.21875 0.53125,0 1.07813,0.32812 l -0.35938,0.98438 q -0.39062,-0.23438 -0.76562,-0.23438 -0.35938,0 -0.64063,0.21875 -0.26562,0.20313 -0.375,0.57813 -0.1875,0.5625 -0.1875,1.21875 v 3.26562 z"
       fill-rule="nonzero"
       id="path23" />
    <path
       fill="#000000"
       d="m 650.4661,279.0633 3.29687,-8.59375 h 1.21875 l 3.51563,8.59375 h -1.28125 l -1.01563,-2.60937 h -3.57812 l -0.95313,2.60937 z m 2.48437,-3.53125 h 2.90625 l -0.89062,-2.375 q -0.42188,-1.07812 -0.60938,-1.78125 -0.17187,0.82813 -0.46875,1.64063 z m 6.45704,3.53125 v -8.59375 h 3.25 q 0.84375,0 1.29687,0.0781 0.64063,0.10937 1.0625,0.40625 0.4375,0.29687 0.6875,0.82812 0.26563,0.53125 0.26563,1.17188 0,1.09375 -0.70313,1.85937 -0.6875,0.75 -2.51562,0.75 h -2.20313 v 3.5 z m 1.14062,-4.5 h 2.21875 q 1.10938,0 1.5625,-0.40625 0.46875,-0.42187 0.46875,-1.17187 0,-0.53125 -0.28125,-0.90625 -0.26562,-0.39063 -0.70312,-0.51563 -0.29688,-0.0781 -1.0625,-0.0781 h -2.20313 z m 7.06641,4.5 v -8.59375 h 1.125 v 8.59375 z"
       fill-rule="nonzero"
       id="path25" />
    <path
       fill="#eeeeee"
       d="m 281.17633,165.48032 h 95.14963 v 131.3386 h -95.14963 z"
       fill-rule="evenodd"
       id="path27" />
    <path
       stroke="#0000ff"
       stroke-width="1"
       stroke-linejoin="round"
       stroke-linecap="butt"
       d="m 281.17633,165.48032 h 95.14963 v 131.3386 h -95.14963 z"
       fill-rule="evenodd"
       id="path29" />
    <path
       fill="#000000"
       d="m 314.05487,214.6696 v -8.59375 h 1.125 v 3.53125 h 4.46875 v -3.53125 h 1.14062 v 8.59375 h -1.14062 v -4.04688 h -4.46875 v 4.04688 z m 10.80664,0 v -7.57813 h -2.82812 v -1.01562 h 6.8125 v 1.01562 h -2.84375 v 7.57813 z m 7.33008,0 v -7.57813 h -2.82813 v -1.01562 h 6.8125 v 1.01562 h -2.84375 v 7.57813 z m 5.14258,0 v -8.59375 h 3.25 q 0.84375,0 1.29687,0.0781 0.64063,0.10938 1.0625,0.40625 0.4375,0.29688 0.6875,0.82813 0.26563,0.53125 0.26563,1.17187 0,1.09375 -0.70313,1.85938 -0.6875,0.75 -2.51562,0.75 h -2.20313 v 3.5 z m 1.14062,-4.5 h 2.21875 q 1.10938,0 1.5625,-0.40625 0.46875,-0.42188 0.46875,-1.17188 0,-0.53125 -0.28125,-0.90625 -0.26562,-0.39062 -0.70312,-0.51562 -0.29688,-0.0781 -1.0625,-0.0781 h -2.20313 z"
       fill-rule="nonzero"
       id="path31" />
    <path
       fill="#000000"
       d="m 333.78632,227.65398 q -0.51563,0.57812 -1.14063,0.875 -0.60937,0.28125 -1.32812,0.28125 -1.3125,0 -2.09375,-0.89063 -0.625,-0.71875 -0.625,-1.625 0,-0.79687 0.51562,-1.4375 0.51563,-0.64062 1.53125,-1.125 -0.57812,-0.67187 -0.78125,-1.07812 -0.1875,-0.42188 -0.1875,-0.8125 0,-0.76563 0.60938,-1.32813 0.60937,-0.57812 1.53125,-0.57812 0.875,0 1.42187,0.54687 0.5625,0.53125 0.5625,1.28125 0,1.23438 -1.60937,2.09375 l 1.53125,1.96875 q 0.26562,-0.51562 0.40625,-1.20312 l 1.10937,0.23437 q -0.28125,1.125 -0.76562,1.85938 0.59375,0.78125 1.34375,1.3125 l -0.71875,0.84375 q -0.64063,-0.42188 -1.3125,-1.21875 z m -2.14063,-4.46875 q 0.6875,-0.40625 0.875,-0.70313 0.20313,-0.3125 0.20313,-0.6875 0,-0.4375 -0.28125,-0.71875 -0.26563,-0.28125 -0.6875,-0.28125 -0.42188,0 -0.71875,0.28125 -0.28125,0.28125 -0.28125,0.67188 0,0.20312 0.10937,0.42187 0.10938,0.21875 0.3125,0.46875 z m 1.48438,3.64062 -1.9375,-2.40625 q -0.85938,0.51563 -1.15625,0.95313 -0.29688,0.4375 -0.29688,0.85937 0,0.53125 0.40625,1.09375 0.42188,0.5625 1.1875,0.5625 0.46875,0 0.96875,-0.29687 0.51563,-0.29688 0.82813,-0.76563 z"
       fill-rule="nonzero"
       id="path33" />
    <path
       fill="#000000"
       d="m 318.94452,242.6696 -2.28125,-8.59375 h 1.17187 l 1.3125,5.64062 q 0.20313,0.875 0.35938,1.75 0.32812,-1.375 0.39062,-1.59375 l 1.625,-5.79687 h 1.375 l 1.23438,4.34375 q 0.45312,1.625 0.67187,3.04687 0.15625,-0.8125 0.42188,-1.875 l 1.34375,-5.51562 h 1.14062 l -2.34375,8.59375 h -1.10937 l -1.79688,-6.54688 q -0.23437,-0.8125 -0.28125,-1 -0.125,0.57813 -0.25,1 l -1.8125,6.54688 z m 13.73437,-2 1.09375,0.125 q -0.25,0.95312 -0.95312,1.48437 -0.70313,0.53125 -1.78125,0.53125 -1.35938,0 -2.17188,-0.84375 -0.79687,-0.84375 -0.79687,-2.35937 0,-1.5625 0.8125,-2.42188 0.8125,-0.875 2.09375,-0.875 1.25,0 2.03125,0.84375 0.79687,0.84375 0.79687,2.39063 0,0.0937 0,0.28125 h -4.64062 q 0.0625,1.03125 0.57812,1.57812 0.51563,0.53125 1.29688,0.53125 0.57812,0 0.98437,-0.29687 0.42188,-0.3125 0.65625,-0.96875 z m -3.45312,-1.70313 h 3.46875 q -0.0625,-0.79687 -0.39063,-1.1875 -0.51562,-0.60937 -1.3125,-0.60937 -0.73437,0 -1.23437,0.48437 -0.48438,0.48438 -0.53125,1.3125 z m 6.8457,3.70313 h -0.98437 v -8.59375 h 1.0625 v 3.0625 q 0.67187,-0.82813 1.70312,-0.82813 0.57813,0 1.07813,0.23438 0.51562,0.21875 0.84375,0.64062 0.34375,0.42188 0.53125,1.01563 0.1875,0.59375 0.1875,1.26562 0,1.59375 -0.79688,2.46875 -0.79687,0.875 -1.89062,0.875 -1.10938,0 -1.73438,-0.92187 z m -0.0156,-3.15625 q 0,1.10937 0.3125,1.60937 0.5,0.8125 1.34375,0.8125 0.6875,0 1.1875,-0.59375 0.51562,-0.59375 0.51562,-1.79687 0,-1.21875 -0.48437,-1.79688 -0.48438,-0.57812 -1.17188,-0.57812 -0.6875,0 -1.20312,0.60937 -0.5,0.59375 -0.5,1.73438 z"
       fill-rule="nonzero"
       id="path35" />
    <path
       fill="#000000"
       d="m 310.6242,253.90398 1.0625,-0.0937 q 0.0781,0.65625 0.35937,1.0625 0.28125,0.40625 0.85938,0.67187 0.59375,0.25 1.32812,0.25 0.64063,0 1.14063,-0.1875 0.5,-0.20312 0.73437,-0.53125 0.25,-0.34375 0.25,-0.73437 0,-0.40625 -0.23437,-0.70313 -0.23438,-0.3125 -0.76563,-0.51562 -0.35937,-0.14063 -1.54687,-0.42188 -1.17188,-0.28125 -1.64063,-0.53125 -0.625,-0.32812 -0.92187,-0.79687 -0.29688,-0.48438 -0.29688,-1.07813 0,-0.64062 0.35938,-1.20312 0.375,-0.57813 1.07812,-0.85938 0.71875,-0.29687 1.57813,-0.29687 0.95312,0 1.6875,0.3125 0.73437,0.29687 1.125,0.90625 0.39062,0.59375 0.42187,1.34375 l -1.09375,0.0781 q -0.0937,-0.8125 -0.60937,-1.21875 -0.5,-0.42187 -1.48438,-0.42187 -1.03125,0 -1.5,0.375 -0.46875,0.375 -0.46875,0.90625 0,0.46875 0.32813,0.76562 0.32812,0.29688 1.70312,0.60938 1.39063,0.3125 1.90625,0.54687 0.75,0.35938 1.10938,0.89063 0.35937,0.51562 0.35937,1.21875 0,0.6875 -0.39062,1.29687 -0.39063,0.59377 -1.125,0.93752 -0.73438,0.32813 -1.65625,0.32813 -1.17188,0 -1.96875,-0.32813 -0.78125,-0.34375 -1.23438,-1.03127 -0.4375,-0.6875 -0.45312,-1.54687 z m 7.86328,-0.34375 q 0,-1.73438 0.95313,-2.5625 0.79687,-0.6875 1.95312,-0.6875 1.28125,0 2.09375,0.84375 0.82813,0.82812 0.82813,2.3125 0,1.20312 -0.35938,1.89062 -0.35937,0.68752 -1.0625,1.07815 -0.6875,0.375 -1.5,0.375 -1.29687,0 -2.10937,-0.82814 -0.79688,-0.84375 -0.79688,-2.42188 z m 1.07813,0 q 0,1.1875 0.51562,1.78125 0.53125,0.59375 1.3125,0.59375 0.79688,0 1.3125,-0.59375 0.51563,-0.59375 0.51563,-1.8125 0,-1.15625 -0.53125,-1.75 -0.51563,-0.59375 -1.29688,-0.59375 -0.78125,0 -1.3125,0.59375 -0.51562,0.57812 -0.51562,1.78125 z m 10.04882,0.82812 1.03125,0.14063 q -0.17187,1.0625 -0.875,1.67189 -0.70312,0.60938 -1.71875,0.60938 -1.28125,0 -2.0625,-0.82814 -0.76562,-0.84375 -0.76562,-2.40625 0,-1 0.32812,-1.75 0.34375,-0.76563 1.01563,-1.14063 0.6875,-0.375 1.5,-0.375 1,0 1.64062,0.51563 0.65625,0.5 0.84375,1.45312 l -1.03125,0.15625 q -0.14062,-0.625 -0.51562,-0.9375 -0.375,-0.32812 -0.90625,-0.32812 -0.79688,0 -1.29688,0.57812 -0.5,0.5625 -0.5,1.79688 0,1.26562 0.48438,1.82812 0.48437,0.5625 1.25,0.5625 0.625,0 1.03125,-0.375 0.42187,-0.375 0.54687,-1.17188 z m 1.9375,2.28127 v -8.59376 h 1.0625 v 4.90625 l 2.48438,-2.53125 h 1.375 l -2.39063,2.29687 2.625,3.92189 h -1.29687 l -2.0625,-3.18751 -0.73438,0.71875 v 2.46876 z m 10.25,-2.00002 1.09375,0.125 q -0.25,0.95313 -0.95312,1.4844 -0.70313,0.53125 -1.78125,0.53125 -1.35938,0 -2.17188,-0.84377 -0.79687,-0.84375 -0.79687,-2.35937 0,-1.5625 0.8125,-2.42188 0.8125,-0.875 2.09375,-0.875 1.25,0 2.03125,0.84375 0.79687,0.84375 0.79687,2.39063 0,0.0937 0,0.28125 h -4.64062 q 0.0625,1.03125 0.57812,1.57812 0.51563,0.53125 1.29688,0.53125 0.57812,0 0.98437,-0.29687 0.42188,-0.3125 0.65625,-0.96876 z m -3.45312,-1.70312 h 3.46875 q -0.0625,-0.79688 -0.39063,-1.1875 -0.51562,-0.60938 -1.3125,-0.60938 -0.73437,0 -1.23437,0.48438 -0.48438,0.48437 -0.53125,1.3125 z m 5.86133,3.70314 v -6.21877 h 0.95312 v 0.9375 q 0.35935,-0.65625 0.65622,-0.85937 0.3125,-0.21875 0.6875,-0.21875 0.53125,0 1.07813,0.32812 l -0.35938,0.98438 q -0.39062,-0.23438 -0.76562,-0.23438 -0.35938,0 -0.64063,0.21875 -0.26562,0.20313 -0.375,0.57813 -0.1875,0.5625 -0.1875,1.21875 v 3.26564 z"
       fill-rule="nonzero"
       id="path37" />
    <path
       fill="#eeeeee"
       d="m 388.8588,165.48032 h 214.99216 v 58.58267 H 388.8588 Z"
       fill-rule="evenodd"
       id="path39" />
    <path
       stroke="#0000ff"
       stroke-width="1"
       stroke-linejoin="round"
       stroke-linecap="butt"
       d="m 388.8588,165.48032 h 214.99216 v 58.58267 H 388.8588 Z"
       fill-rule="evenodd"
       id="path41" />
    <path
       fill="#000000"
       d="m 432.60522,197.89478 1.59375,-0.21875 q 0.0781,1.53125 0.57812,2.10937 0.51563,0.5625 1.42188,0.5625 0.65625,0 1.14062,-0.29687 0.48438,-0.3125 0.65625,-0.82813 0.1875,-0.53125 0.1875,-1.6875 v -9.20312 h 1.76563 v 9.10937 q 0,1.67188 -0.40625,2.59375 -0.40625,0.92188 -1.28125,1.40625 -0.875,0.48438 -2.0625,0.48438 -1.75,0 -2.6875,-1.01563 -0.9375,-1.01562 -0.90625,-3.01562 z m 9.375,0.90625 1.625,-0.25 q 0.125,0.96875 0.75,1.5 0.625,0.51562 1.75,0.51562 1.125,0 1.67187,-0.45312 0.54688,-0.46875 0.54688,-1.09375 0,-0.54688 -0.48438,-0.875 -0.32812,-0.21875 -1.67187,-0.54688 -1.8125,-0.46875 -2.51563,-0.79687 -0.6875,-0.32813 -1.04687,-0.90625 -0.35938,-0.59375 -0.35938,-1.3125 0,-0.64063 0.29688,-1.1875 0.29687,-0.5625 0.8125,-0.92188 0.375,-0.28125 1.03125,-0.46875 0.67187,-0.20312 1.42187,-0.20312 1.14063,0 2,0.32812 0.85938,0.32813 1.26563,0.89063 0.42187,0.5625 0.57812,1.5 l -1.60937,0.21875 q -0.10938,-0.75 -0.64063,-1.17188 -0.51562,-0.42187 -1.46875,-0.42187 -1.14062,0 -1.625,0.375 -0.46875,0.375 -0.46875,0.875 0,0.3125 0.1875,0.57812 0.20313,0.26563 0.64063,0.4375 0.23437,0.0937 1.4375,0.42188 1.75,0.45312 2.4375,0.75 0.6875,0.29687 1.07812,0.85937 0.39063,0.5625 0.39063,1.40625 0,0.82813 -0.48438,1.54688 -0.46875,0.71875 -1.375,1.125 -0.90625,0.39062 -2.04687,0.39062 -1.875,0 -2.875,-0.78125 -0.98438,-0.78125 -1.25,-2.32812 z m 9.375,-1.95313 q 0,-2.6875 1.48437,-3.96875 1.25,-1.07812 3.04688,-1.07812 2,0 3.26562,1.3125 1.26563,1.29687 1.26563,3.60937 0,1.85938 -0.5625,2.9375 -0.5625,1.0625 -1.64063,1.65625 -1.0625,0.59375 -2.32812,0.59375 -2.03125,0 -3.28125,-1.29687 -1.25,-1.3125 -1.25,-3.76563 z m 1.6875,0 q 0,1.85938 0.79687,2.79688 0.8125,0.92187 2.04688,0.92187 1.21875,0 2.03125,-0.92187 0.8125,-0.9375 0.8125,-2.84375 0,-1.79688 -0.8125,-2.71875 -0.8125,-0.92188 -2.03125,-0.92188 -1.23438,0 -2.04688,0.92188 -0.79687,0.90625 -0.79687,2.76562 z m 9.29761,4.84375 v -9.67187 h 1.46875 v 1.375 q 1.0625,-1.59375 3.07812,-1.59375 0.875,0 1.60938,0.3125 0.73437,0.3125 1.09375,0.82812 0.375,0.5 0.51562,1.20313 0.0937,0.45312 0.0937,1.59375 v 5.95312 h -1.64062 v -5.89062 q 0,-1 -0.20313,-1.48438 -0.1875,-0.5 -0.67187,-0.79687 -0.48438,-0.29688 -1.14063,-0.29688 -1.04687,0 -1.8125,0.67188 -0.75,0.65625 -0.75,2.51562 v 5.28125 z m 18.83114,0 V 189.9104 h -4.40625 v -1.57812 h 10.57813 v 1.57812 h -4.40625 v 11.78125 z m 7.07828,0 v -9.67187 h 1.46875 v 1.46875 q 0.5625,-1.03125 1.03125,-1.35938 0.48438,-0.32812 1.0625,-0.32812 0.82813,0 1.6875,0.53125 l -0.5625,1.51562 q -0.60937,-0.35937 -1.20312,-0.35937 -0.54688,0 -0.96875,0.32812 -0.42188,0.32813 -0.60938,0.89063 -0.28125,0.875 -0.28125,1.92187 v 5.0625 z m 12.5408,-1.1875 q -0.92187,0.76563 -1.76562,1.09375 -0.82813,0.3125 -1.79688,0.3125 -1.59375,0 -2.45312,-0.78125 -0.85938,-0.78125 -0.85938,-1.98437 0,-0.71875 0.32813,-1.29688 0.32812,-0.59375 0.84375,-0.9375 0.53125,-0.35937 1.1875,-0.54687 0.46875,-0.125 1.45312,-0.25 1.98438,-0.23438 2.92188,-0.5625 0.0156,-0.34375 0.0156,-0.42188 0,-1 -0.46875,-1.42187 -0.625,-0.54688 -1.875,-0.54688 -1.15625,0 -1.70312,0.40625 -0.54688,0.40625 -0.8125,1.42188 l -1.60938,-0.21875 q 0.21875,-1.01563 0.71875,-1.64063 0.5,-0.64062 1.45313,-0.98437 0.95312,-0.34375 2.1875,-0.34375 1.25,0 2.01562,0.29687 0.78125,0.28125 1.14063,0.73438 0.375,0.4375 0.51562,1.10937 0.0781,0.42188 0.0781,1.51563 v 2.1875 q 0,2.28125 0.10937,2.89062 0.10938,0.59375 0.40625,1.15625 h -1.70312 q -0.26563,-0.51562 -0.32813,-1.1875 z m -0.14062,-3.67187 q -0.89063,0.375 -2.67188,0.625 -1.01562,0.14062 -1.4375,0.32812 -0.42187,0.1875 -0.65625,0.53125 -0.21875,0.34375 -0.21875,0.78125 0,0.65625 0.5,1.09375 0.5,0.4375 1.45313,0.4375 0.9375,0 1.67187,-0.40625 0.75,-0.42187 1.09375,-1.14062 0.26563,-0.5625 0.26563,-1.64063 z m 4.20385,4.85937 v -9.67187 h 1.46875 v 1.375 q 1.0625,-1.59375 3.07813,-1.59375 0.875,0 1.60937,0.3125 0.73438,0.3125 1.09372,0.82812 0.375,0.5 0.51563,1.20313 0.0937,0.45312 0.0937,1.59375 v 5.95312 h -1.6406 v -5.89062 q 0,-1 -0.20312,-1.48438 -0.1875,-0.5 -0.67188,-0.79687 -0.48437,-0.29688 -1.14062,-0.29688 -1.04688,0 -1.8125,0.67188 -0.75,0.65625 -0.75,2.51562 v 5.28125 z m 9.71946,-2.89062 1.625,-0.25 q 0.125,0.96875 0.75,1.5 0.625,0.51562 1.75,0.51562 1.125,0 1.67187,-0.45312 0.54688,-0.46875 0.54688,-1.09375 0,-0.54688 -0.48438,-0.875 -0.32812,-0.21875 -1.67187,-0.54688 -1.8125,-0.46875 -2.51563,-0.79687 -0.6875,-0.32813 -1.04687,-0.90625 -0.35938,-0.59375 -0.35938,-1.3125 0,-0.64063 0.29688,-1.1875 0.29687,-0.5625 0.8125,-0.92188 0.375,-0.28125 1.03125,-0.46875 0.67187,-0.20312 1.42187,-0.20312 1.14063,0 2,0.32812 0.85938,0.32813 1.26563,0.89063 0.42187,0.5625 0.57812,1.5 l -1.60937,0.21875 q -0.10938,-0.75 -0.64063,-1.17188 -0.51562,-0.42187 -1.46875,-0.42187 -1.14062,0 -1.625,0.375 -0.46875,0.375 -0.46875,0.875 0,0.3125 0.1875,0.57812 0.20313,0.26563 0.64063,0.4375 0.23437,0.0937 1.4375,0.42188 1.75,0.45312 2.4375,0.75 0.6875,0.29687 1.07812,0.85937 0.39063,0.5625 0.39063,1.40625 0,0.82813 -0.48438,1.54688 -0.46875,0.71875 -1.375,1.125 -0.90625,0.39062 -2.04687,0.39062 -1.875,0 -2.875,-0.78125 -0.98438,-0.78125 -1.25,-2.32812 z m 10.375,2.89062 v -8.40625 h -1.45313 v -1.26562 h 1.45313 v -1.03125 q 0,-0.96875 0.17187,-1.45313 0.23438,-0.64062 0.82813,-1.03125 0.59375,-0.39062 1.67187,-0.39062 0.6875,0 1.53125,0.15625 l -0.25,1.4375 q -0.5,-0.0937 -0.95312,-0.0937 -0.75,0 -1.0625,0.32812 -0.3125,0.3125 -0.3125,1.1875 v 0.89063 h 1.89062 v 1.26562 h -1.89062 v 8.40625 z m 4.18329,-4.84375 q 0,-2.6875 1.48437,-3.96875 1.25,-1.07812 3.04688,-1.07812 2,0 3.26562,1.3125 1.26563,1.29687 1.26563,3.60937 0,1.85938 -0.5625,2.9375 -0.5625,1.0625 -1.64063,1.65625 -1.0625,0.59375 -2.32812,0.59375 -2.03125,0 -3.28125,-1.29687 -1.25,-1.3125 -1.25,-3.76563 z m 1.6875,0 q 0,1.85938 0.79687,2.79688 0.8125,0.92187 2.04688,0.92187 1.21875,0 2.03125,-0.92187 0.8125,-0.9375 0.8125,-2.84375 0,-1.79688 -0.8125,-2.71875 -0.8125,-0.92188 -2.03125,-0.92188 -1.23438,0 -2.04688,0.92188 -0.79687,0.90625 -0.79687,2.76562 z m 9.28198,4.84375 v -9.67187 h 1.46875 v 1.46875 q 0.5625,-1.03125 1.03125,-1.35938 0.48437,-0.32812 1.0625,-0.32812 0.82812,0 1.6875,0.53125 l -0.5625,1.51562 q -0.60938,-0.35937 -1.20313,-0.35937 -0.54687,0 -0.96875,0.32812 -0.42187,0.32813 -0.60937,0.89063 -0.28125,0.875 -0.28125,1.92187 v 5.0625 z m 6.22833,0 v -9.67187 h 1.46875 v 1.35937 q 0.45313,-0.71875 1.20313,-1.14062 0.76562,-0.4375 1.71875,-0.4375 1.07812,0 1.76562,0.45312 0.6875,0.4375 0.96875,1.23438 1.15625,-1.6875 2.98438,-1.6875 1.45312,0 2.21875,0.79687 0.78125,0.79688 0.78125,2.45313 v 6.64062 h -1.64063 v -6.09375 q 0,-0.98437 -0.15625,-1.40625 -0.15625,-0.4375 -0.57812,-0.70312 -0.42188,-0.26563 -0.98438,-0.26563 -1.01562,0 -1.6875,0.6875 -0.67187,0.67188 -0.67187,2.15625 v 5.625 h -1.64063 v -6.28125 q 0,-1.09375 -0.40625,-1.64062 -0.40625,-0.54688 -1.3125,-0.54688 -0.6875,0 -1.28125,0.35938 -0.59375,0.35937 -0.85937,1.0625 -0.25,0.70312 -0.25,2.03125 v 5.01562 z"
       fill-rule="nonzero"
       id="path43" />
    <path
       fill="#eeeeee"
       d="m 13.632545,253.88873 v 0 c 0,-27.075 21.299965,-49.02362 47.574802,-49.02362 26.274837,0 47.574803,21.94862 47.574803,49.02362 0,27.07501 -21.299966,49.02362 -47.574803,49.02362 -26.274837,0 -47.574802,-21.94861 -47.574802,-49.02362 z"
       fill-rule="evenodd"
       id="path45" />
    <path
       fill="#bebebe"
       d="m 41.010082,239.22705 c 0,-2.82031 2.218746,-5.10663 4.955711,-5.10663 2.736962,0 4.955708,2.28632 4.955708,5.10663 0,2.82031 -2.218746,5.10661 -4.955708,5.10661 -2.736965,0 -4.955711,-2.2863 -4.955711,-5.10661 m 30.483112,0 c 0,-2.82031 2.21875,-5.10663 4.955711,-5.10663 2.736962,0 4.955712,2.28632 4.955712,5.10663 0,2.82031 -2.21875,5.10661 -4.955712,5.10661 -2.736961,0 -4.955711,-2.2863 -4.955711,-5.10661"
       fill-rule="evenodd"
       id="path47" />
    <path
       fill="#000000"
       fill-opacity="0"
       d="m 35.421494,275.26828 q 25.785854,18.24853 51.51149,0"
       fill-rule="evenodd"
       id="path49" />
    <path
       fill="#000000"
       fill-opacity="0"
       d="m 13.632545,253.88873 v 0 c 0,-27.075 21.299965,-49.02362 47.574802,-49.02362 26.274837,0 47.574803,21.94862 47.574803,49.02362 0,27.07501 -21.299966,49.02362 -47.574803,49.02362 -26.274837,0 -47.574802,-21.94861 -47.574802,-49.02362 z"
       fill-rule="evenodd"
       id="path51" />
    <path
       stroke="#595959"
       stroke-width="1"
       stroke-linejoin="round"
       stroke-linecap="butt"
       d="m 41.010082,239.22705 c 0,-2.82031 2.218746,-5.10663 4.955711,-5.10663 2.736962,0 4.955708,2.28632 4.955708,5.10663 0,2.82031 -2.218746,5.10661 -4.955708,5.10661 -2.736965,0 -4.955711,-2.2863 -4.955711,-5.10661 m 30.483112,0 c 0,-2.82031 2.21875,-5.10663 4.955711,-5.10663 2.736962,0 4.955712,2.28632 4.955712,5.10663 0,2.82031 -2.21875,5.10661 -4.955712,5.10661 -2.736961,0 -4.955711,-2.2863 -4.955711,-5.10661"
       fill-rule="evenodd"
       id="path53" />
    <path
       stroke="#595959"
       stroke-width="1"
       stroke-linejoin="round"
       stroke-linecap="butt"
       d="m 35.421494,275.26828 q 25.785854,18.24853 51.51149,0"
       fill-rule="evenodd"
       id="path55" />
    <path
       stroke="#595959"
       stroke-width="1"
       stroke-linejoin="round"
       stroke-linecap="butt"
       d="m 13.632545,253.88873 v 0 c 0,-27.075 21.299965,-49.02362 47.574802,-49.02362 26.274837,0 47.574803,21.94862 47.574803,49.02362 0,27.07501 -21.299966,49.02362 -47.574803,49.02362 -26.274837,0 -47.574802,-21.94861 -47.574802,-49.02362 z"
       fill-rule="evenodd"
       id="path57" />
    <path
       fill="#000000"
       fill-opacity="0"
       d="m 13.632545,311.27414 h 95.149605 v 42.01575 H 13.632545 Z"
       fill-rule="evenodd"
       id="path59" />
    <path
       fill="#000000"
       d="m 33.601295,333.50662 1.765625,0.45312 q -0.5625,2.17188 -2,3.32813 -1.4375,1.14062 -3.53125,1.14062 -2.15625,0 -3.515625,-0.875 -1.34375,-0.89062 -2.0625,-2.54687 -0.703125,-1.67188 -0.703125,-3.59375 0,-2.07813 0.796875,-3.625 0.796875,-1.5625 2.265625,-2.35938 1.484375,-0.8125 3.25,-0.8125 2,0 3.359375,1.01563 1.375,1.01562 1.90625,2.875 l -1.734375,0.40625 q -0.46875,-1.45313 -1.359375,-2.10938 -0.875,-0.67187 -2.203125,-0.67187 -1.546875,0 -2.578125,0.73437 -1.03125,0.73438 -1.453125,1.98438 -0.421875,1.23437 -0.421875,2.5625 0,1.70312 0.5,2.96875 0.5,1.26562 1.546875,1.90625 1.046875,0.625 2.265625,0.625 1.484375,0 2.515625,-0.85938 1.03125,-0.85937 1.390625,-2.54687 z m 3.691696,4.6875 v -13.35938 h 1.640625 v 13.35938 z m 4.191696,-11.46875 v -1.89063 h 1.640625 v 1.89063 z m 0,11.46875 v -9.67188 h 1.640625 v 9.67188 z m 10.769821,-3.10938 1.6875,0.20313 q -0.40625,1.48437 -1.484375,2.3125 -1.078125,0.8125 -2.765625,0.8125 -2.125,0 -3.375,-1.29688 -1.234375,-1.3125 -1.234375,-3.67187 0,-2.45313 1.25,-3.79688 1.265625,-1.34375 3.265625,-1.34375 1.9375,0 3.15625,1.32813 1.234375,1.3125 1.234375,3.70312 0,0.15625 0,0.4375 h -7.21875 q 0.09375,1.59375 0.90625,2.45313 0.8125,0.84375 2.015625,0.84375 0.90625,0 1.546875,-0.46875 0.640625,-0.48438 1.015625,-1.51563 z m -5.390625,-2.65625 h 5.40625 q -0.109375,-1.21875 -0.625,-1.82812 -0.78125,-0.95313 -2.03125,-0.95313 -1.125,0 -1.90625,0.76563 -0.765625,0.75 -0.84375,2.01562 z m 9.141342,5.76563 v -9.67188 h 1.46875 v 1.375 q 1.0625,-1.59375 3.078125,-1.59375 0.875,0 1.609375,0.3125 0.734375,0.3125 1.09375,0.82813 0.375,0.5 0.515625,1.20312 0.09375,0.45313 0.09375,1.59375 v 5.95313 h -1.640625 v -5.89063 q 0,-1 -0.203125,-1.48437 -0.1875,-0.5 -0.671875,-0.79688 -0.484375,-0.29687 -1.140625,-0.29687 -1.046875,0 -1.8125,0.67187 -0.75,0.65625 -0.75,2.51563 v 5.28125 z m 13.953842,-1.46875 0.234375,1.45312 q -0.6875,0.14063 -1.234375,0.14063 -0.890625,0 -1.390625,-0.28125 -0.484375,-0.28125 -0.6875,-0.73438 -0.203125,-0.46875 -0.203125,-1.9375 v -5.57812 h -1.203125 v -1.26563 h 1.203125 v -2.39062 l 1.625,-0.98438 v 3.375 h 1.65625 v 1.26563 h -1.65625 v 5.67187 q 0,0.6875 0.07813,0.89063 0.09375,0.20312 0.28125,0.32812 0.203125,0.10938 0.578125,0.10938 0.265625,0 0.71875,-0.0625 z"
       fill-rule="nonzero"
       id="path61" />
    <path
       fill="#000000"
       fill-opacity="0"
       d="M 130.50511,267.54834 H 248.36337"
       fill-rule="evenodd"
       id="path63" />
    <path
       stroke="#595959"
       stroke-width="1"
       stroke-linejoin="round"
       stroke-linecap="butt"
       d="M 136.50511,267.54834 H 242.36337"
       fill-rule="evenodd"
       id="path65" />
    <path
       fill="#595959"
       stroke="#595959"
       stroke-width="1"
       stroke-linecap="butt"
       d="m 136.50511,265.8966 -4.5381,1.65173 4.5381,1.65174 z"
       fill-rule="evenodd"
       id="path67" />
    <path
       fill="#595959"
       stroke="#595959"
       stroke-width="1"
       stroke-linecap="butt"
       d="m 242.36337,269.20007 4.5381,-1.65173 -4.5381,-1.65174 z"
       fill-rule="evenodd"
       id="path69" />
    <path
       fill="#000000"
       fill-opacity="0"
       d="M 716.8551,267.55194 H 834.71338"
       fill-rule="evenodd"
       id="path71" />
    <path
       stroke="#595959"
       stroke-width="1"
       stroke-linejoin="round"
       stroke-linecap="butt"
       d="M 722.85516,267.55197 H 828.71344"
       fill-rule="evenodd"
       id="path73" />
    <path
       fill="#595959"
       stroke="#595959"
       stroke-width="1"
       stroke-linecap="butt"
       d="m 722.85516,265.90024 -4.53809,1.65173 4.53809,1.65174 z"
       fill-rule="evenodd"
       id="path75" />
    <path
       fill="#595959"
       stroke="#595959"
       stroke-width="1"
       stroke-linecap="butt"
       d="m 828.71344,269.2037 4.53809,-1.65173 -4.53809,-1.65174 z"
       fill-rule="evenodd"
       id="path77" />
    <path
       fill="#eeeeee"
       d="m 856.1131,198.41356 v 0 c 0,5.35326 17.3587,9.69292 38.77167,9.69292 21.41302,0 38.77166,-4.33966 38.77166,-9.69292 v 83.76378 c 0,5.35324 -17.35864,9.69293 -38.77166,9.69293 -21.41297,0 -38.77167,-4.33969 -38.77167,-9.69293 z"
       fill-rule="evenodd"
       id="path79" />
    <path
       fill="#f4f4f4"
       d="m 856.1131,198.41356 v 0 c 0,-5.35324 17.3587,-9.6929 38.77167,-9.6929 21.41302,0 38.77166,4.33966 38.77166,9.6929 v 0 c 0,5.35326 -17.35864,9.69292 -38.77166,9.69292 -21.41297,0 -38.77167,-4.33966 -38.77167,-9.69292 z"
       fill-rule="evenodd"
       id="path81" />
    <path
       fill="#000000"
       fill-opacity="0"
       d="m 933.65643,198.41356 v 0 c 0,5.35326 -17.35864,9.69292 -38.77167,9.69292 -21.41296,0 -38.77166,-4.33966 -38.77166,-9.69292 v 0 c 0,-5.35324 17.3587,-9.6929 38.77166,-9.6929 21.41303,0 38.77167,4.33966 38.77167,9.6929 v 83.76378 c 0,5.35324 -17.35864,9.69293 -38.77167,9.69293 -21.41296,0 -38.77166,-4.33969 -38.77166,-9.69293 v -83.76378"
       fill-rule="evenodd"
       id="path83" />
    <path
       stroke="#595959"
       stroke-width="1"
       stroke-linejoin="round"
       stroke-linecap="butt"
       d="m 933.65643,198.41356 v 0 c 0,5.35326 -17.35864,9.69292 -38.77167,9.69292 -21.41296,0 -38.77166,-4.33966 -38.77166,-9.69292 v 0 c 0,-5.35324 17.3587,-9.6929 38.77166,-9.6929 21.41303,0 38.77167,4.33966 38.77167,9.6929 v 83.76378 c 0,5.35324 -17.35864,9.69293 -38.77167,9.69293 -21.41296,0 -38.77166,-4.33969 -38.77166,-9.69293 v -83.76378"
       fill-rule="evenodd"
       id="path85" />
    <path
       fill="#000000"
       fill-opacity="0"
       d="m 840.69464,293.5036 h 108.37799 v 35.55905 H 840.69464 Z"
       fill-rule="evenodd"
       id="path87" />
    <path
       fill="#000000"
       d="m 854.1817,315.3036 -3.6875,-9.54687 h 1.35937 l 2.48438,6.9375 q 0.29687,0.82812 0.5,1.5625 0.21875,-0.78125 0.51562,-1.5625 l 2.57813,-6.9375 h 1.28125 l -3.73438,9.54687 z m 10.01349,-2.21875 1.20312,0.14063 q -0.28125,1.0625 -1.0625,1.65625 -0.76562,0.57812 -1.96875,0.57812 -1.51562,0 -2.40625,-0.9375 -0.89062,-0.9375 -0.89062,-2.60937 0,-1.75 0.89062,-2.70313 0.90625,-0.96875 2.34375,-0.96875 1.39063,0 2.26563,0.9375 0.875,0.9375 0.875,2.65625 0,0.10938 0,0.3125 h -5.15625 q 0.0625,1.14063 0.64062,1.75 0.57813,0.59375 1.4375,0.59375 0.65625,0 1.10938,-0.32812 0.45312,-0.34375 0.71875,-1.07813 z m -3.84375,-1.90625 h 3.85937 q -0.0781,-0.85937 -0.4375,-1.29687 -0.5625,-0.6875 -1.45312,-0.6875 -0.8125,0 -1.35938,0.54687 -0.54687,0.53125 -0.60937,1.4375 z m 6.52185,4.125 v -6.90625 h 1.0625 v 0.98438 q 0.75,-1.14063 2.1875,-1.14063 0.625,0 1.15625,0.21875 0.53125,0.21875 0.78125,0.59375 0.26562,0.35938 0.375,0.85938 0.0625,0.32812 0.0625,1.14062 v 4.25 h -1.17188 v -4.20312 q 0,-0.71875 -0.14062,-1.0625 -0.14063,-0.35938 -0.48438,-0.5625 -0.34375,-0.21875 -0.8125,-0.21875 -0.75,0 -1.29687,0.46875 -0.54688,0.46875 -0.54688,1.79687 v 3.78125 z m 11.89685,0 v -0.875 q -0.65625,1.03125 -1.9375,1.03125 -0.8125,0 -1.51562,-0.45312 -0.6875,-0.45313 -1.07813,-1.26563 -0.375,-0.82812 -0.375,-1.89062 0,-1.03125 0.34375,-1.875 0.34375,-0.84375 1.03125,-1.28125 0.70313,-0.45313 1.54688,-0.45313 0.625,0 1.10937,0.26563 0.5,0.25 0.79688,0.67187 v -3.42187 h 1.17187 v 9.54687 z m -3.70312,-3.45312 q 0,1.32812 0.5625,1.98437 0.5625,0.65625 1.32812,0.65625 0.76563,0 1.29688,-0.625 0.53125,-0.625 0.53125,-1.90625 0,-1.42187 -0.54688,-2.07812 -0.54687,-0.67188 -1.34375,-0.67188 -0.78125,0 -1.3125,0.64063 -0.51562,0.625 -0.51562,2 z m 6.19372,0 q 0,-1.92188 1.07813,-2.84375 0.89062,-0.76563 2.17187,-0.76563 1.42188,0 2.32813,0.9375 0.90625,0.92188 0.90625,2.57813 0,1.32812 -0.40625,2.09375 -0.39063,0.76562 -1.15625,1.1875 -0.76563,0.42187 -1.67188,0.42187 -1.45312,0 -2.35937,-0.92187 -0.89063,-0.9375 -0.89063,-2.6875 z m 1.20313,0 q 0,1.32812 0.57812,1.98437 0.59375,0.65625 1.46875,0.65625 0.875,0 1.45313,-0.65625 0.57812,-0.67187 0.57812,-2.03125 0,-1.28125 -0.59375,-1.9375 -0.57812,-0.65625 -1.4375,-0.65625 -0.875,0 -1.46875,0.65625 -0.57812,0.65625 -0.57812,1.98438 z m 6.63122,3.45312 v -6.90625 h 1.0625 v 1.04688 q 0.40625,-0.73438 0.73438,-0.96875 0.34375,-0.23438 0.76562,-0.23438 0.59375,0 1.20313,0.375 l -0.40625,1.07813 q -0.4375,-0.25 -0.85938,-0.25 -0.39062,0 -0.70312,0.23437 -0.29688,0.23438 -0.42188,0.64063 -0.20312,0.625 -0.20312,1.35937 v 3.625 z m 11.57868,-3.0625 1.20312,-0.10937 q 0.0781,0.71875 0.39063,1.1875 0.3125,0.45312 0.95312,0.73437 0.65625,0.28125 1.46875,0.28125 0.71881,0 1.26569,-0.21875 0.5625,-0.21875 0.82812,-0.57812 0.26563,-0.375 0.26563,-0.82813 0,-0.45312 -0.26563,-0.78125 -0.25,-0.32812 -0.84375,-0.5625 -0.39062,-0.15625 -1.70318,-0.46875 -1.3125,-0.3125 -1.84375,-0.59375 -0.67188,-0.35937 -1.01563,-0.89062 -0.32812,-0.53125 -0.32812,-1.1875 0,-0.71875 0.40625,-1.34375 0.40625,-0.625 1.1875,-0.95313 0.79687,-0.32812 1.76562,-0.32812 1.04694,0 1.85944,0.34375 0.8125,0.34375 1.25,1.01562 0.4375,0.65625 0.46875,1.48438 l -1.20313,0.0937 q -0.10937,-0.90625 -0.67187,-1.35938 -0.5625,-0.46875 -1.65631,-0.46875 -1.14063,0 -1.67188,0.42188 -0.51562,0.42187 -0.51562,1.01562 0,0.51563 0.35937,0.84375 0.375,0.32813 1.90625,0.6875 1.54694,0.34375 2.10944,0.59375 0.84375,0.39063 1.23437,0.98438 0.39063,0.57812 0.39063,1.35937 0,0.75 -0.4375,1.4375 -0.42188,0.67188 -1.25,1.04688 -0.8125,0.35937 -1.82813,0.35937 -1.29693,0 -2.17193,-0.375 -0.875,-0.375 -1.375,-1.125 -0.5,-0.76562 -0.53125,-1.71875 z m 13.90539,0.84375 1.20313,0.14063 q -0.28125,1.0625 -1.0625,1.65625 -0.76563,0.57812 -1.96875,0.57812 -1.51563,0 -2.40625,-0.9375 -0.89063,-0.9375 -0.89063,-2.60937 0,-1.75 0.89063,-2.70313 0.90625,-0.96875 2.34375,-0.96875 1.39062,0 2.26562,0.9375 0.875,0.9375 0.875,2.65625 0,0.10938 0,0.3125 h -5.15625 q 0.0625,1.14063 0.64063,1.75 0.57812,0.59375 1.4375,0.59375 0.65625,0 1.10937,-0.32812 0.45313,-0.34375 0.71875,-1.07813 z m -3.84375,-1.90625 h 3.85938 q -0.0781,-0.85937 -0.4375,-1.29687 -0.5625,-0.6875 -1.45313,-0.6875 -0.8125,0 -1.35937,0.54687 -0.54688,0.53125 -0.60938,1.4375 z m 6.50623,4.125 v -6.90625 h 1.0625 v 1.04688 q 0.40625,-0.73438 0.73437,-0.96875 0.34375,-0.23438 0.76563,-0.23438 0.59375,0 1.20312,0.375 l -0.40625,1.07813 q -0.4375,-0.25 -0.85937,-0.25 -0.39063,0 -0.70313,0.23437 -0.29687,0.23438 -0.42187,0.64063 -0.20313,0.625 -0.20313,1.35937 v 3.625 z m 6.37591,0 -2.625,-6.90625 h 1.23438 l 1.48437,4.14063 q 0.23438,0.65625 0.4375,1.39062 0.15625,-0.54687 0.4375,-1.3125 l 1.53125,-4.21875 h 1.21875 l -2.625,6.90625 z m 9.47656,-2.21875 1.20313,0.14063 q -0.28125,1.0625 -1.0625,1.65625 -0.76563,0.57812 -1.96875,0.57812 -1.51563,0 -2.40625,-0.9375 -0.89063,-0.9375 -0.89063,-2.60937 0,-1.75 0.89063,-2.70313 0.90625,-0.96875 2.34375,-0.96875 1.39062,0 2.26562,0.9375 0.875,0.9375 0.875,2.65625 0,0.10938 0,0.3125 h -5.15625 q 0.0625,1.14063 0.64063,1.75 0.57812,0.59375 1.4375,0.59375 0.65625,0 1.10937,-0.32812 0.45313,-0.34375 0.71875,-1.07813 z m -3.84375,-1.90625 h 3.85938 q -0.0781,-0.85937 -0.4375,-1.29687 -0.5625,-0.6875 -1.45313,-0.6875 -0.8125,0 -1.35937,0.54687 -0.54688,0.53125 -0.60938,1.4375 z m 6.50623,4.125 v -6.90625 h 1.0625 v 1.04688 q 0.40625,-0.73438 0.73438,-0.96875 0.34375,-0.23438 0.76562,-0.23438 0.59375,0 1.20313,0.375 l -0.40625,1.07813 q -0.4375,-0.25 -0.85938,-0.25 -0.39062,0 -0.70312,0.23437 -0.29688,0.23438 -0.42188,0.64063 -0.20312,0.625 -0.20312,1.35937 v 3.625 z"
       fill-rule="nonzero"
       id="path89" />
  </g>
  <rect
     style="fill:none;stroke:none;stroke-width:4.17638;stop-color:#000000"
     id="rect924"
     width="966.91962"
     height="272.11768"
     x="0"
     y="0" />
</svg>
